<?xml version="1.0" standalone="no"?><!DOCTYPE svg PUBLIC "-//W3C//DTD SVG 1.1//EN" "http://www.w3.org/Graphics/SVG/1.1/DTD/svg11.dtd"><svg t="1622426885686" class="icon" viewBox="0 0 1024 1024" version="1.1" xmlns="http://www.w3.org/2000/svg" p-id="2541" xmlns:xlink="http://www.w3.org/1999/xlink" width="200" height="200"><defs><style type="text/css"></style></defs><path d="M501.55102 94.040816c44.721633 0 88.523755 6.854531 130.319674 20.187429a31.346939 31.346939 0 0 1-19.058939 59.726367A365.484408 365.484408 0 0 0 501.55102 156.734694C299.572245 156.734694 135.836735 320.470204 135.836735 522.44898S299.572245 888.163265 501.55102 888.163265 867.265306 724.427755 867.265306 522.44898a363.896163 363.896163 0 0 0-88.252082-238.236735 31.346939 31.346939 0 1 1 47.542858-40.876408A426.569143 426.569143 0 0 1 929.959184 522.44898c0 236.606694-191.801469 428.408163-428.408164 428.408163S73.142857 759.055673 73.142857 522.44898 264.944327 94.040816 501.55102 94.040816z" fill="#ffffff" p-id="2542"></path><path d="M450.162939 714.208653a198.530612 198.530612 0 1 1 102.776163-383.519347 198.530612 198.530612 0 0 1-102.776163 383.519347z m16.237714-60.541388a135.836735 135.836735 0 1 0 70.300735-262.436571 135.836735 135.836735 0 0 0-70.300735 262.436571z" fill="#ffffff" p-id="2543"></path><path d="M849.355755 115.837388a31.346939 31.346939 0 0 1 17.825959 60.039836l-2.904816 0.835919-85.305469 20.939755a10.44898 10.44898 0 0 0-7.251592 6.373878l-0.480653 1.63004-71.826286 344.084898a31.346939 31.346939 0 0 1-61.857959-9.822041l0.501551-2.96751 71.805388-344.105796a73.142857 73.142857 0 0 1 50.134204-54.961632l4.054204-1.12849 85.305469-20.897959z" fill="#ffffff" p-id="2544"></path></svg>